<!DOCTYPE svg PUBLIC "-//W3C//DTD SVG 1.1//EN" "http://www.w3.org/Graphics/SVG/1.1/DTD/svg11.dtd">

<!-- Uploaded to: SVG Repo, www.svgrepo.com, Transformed by: SVG Repo Mixer Tools -->
<svg width="800px" height="800px" viewBox="0 0 20 20" version="1.1" xmlns="http://www.w3.org/2000/svg" xmlns:xlink="http://www.w3.org/1999/xlink" fill="#ffffff" stroke="#ffffff">

<g id="SVGRepo_bgCarrier" stroke-width="0"/>

<g id="SVGRepo_tracerCarrier" stroke-linecap="round" stroke-linejoin="round"/>

<g id="SVGRepo_iconCarrier"> <title>chess [#ffffff]</title> <desc>Created with Sketch.</desc> <defs> </defs> <g id="Page-1" stroke="none" stroke-width="1" fill="none" fill-rule="evenodd"> <g id="Dribbble-Light-Preview" transform="translate(-260.000000, -2719.000000)" fill="#ffffff"> <g id="icons" transform="translate(56.000000, 160.000000)"> <path d="M214,2573 L218,2573 L218,2569 L214,2569 L214,2573 Z M210,2569 L214,2569 L214,2565 L210,2565 L210,2569 Z M222,2565 L218,2565 L218,2569 L222,2569 L222,2573 L218,2573 L218,2577 L214,2577 L214,2573 L210,2573 L210,2577 L206,2577 L206,2573 L210,2573 L210,2569 L206,2569 L206,2565 L210,2565 L210,2561 L214,2561 L214,2565 L218,2565 L218,2561 L222,2561 L222,2565 Z M204,2579 L224,2579 L224,2559 L204,2559 L204,2579 Z" id="chess-[#ffffff]"> </path> </g> </g> </g> </g>

</svg>