<?xml version="1.0" encoding="utf-8" standalone="no"?>
<!DOCTYPE svg PUBLIC "-//W3C//DTD SVG 1.1//EN"
  "http://www.w3.org/Graphics/SVG/1.1/DTD/svg11.dtd">
<!-- Created with matplotlib (https://matplotlib.org/) -->
<svg height="360pt" version="1.1" viewBox="0 0 648 360" width="648pt" xmlns="http://www.w3.org/2000/svg" xmlns:xlink="http://www.w3.org/1999/xlink">
 <defs>
  <style type="text/css">
*{stroke-linecap:butt;stroke-linejoin:round;}
  </style>
 </defs>
 <g id="figure_1">
  <g id="patch_1">
   <path d="M 0 360 
L 648 360 
L 648 0 
L 0 0 
z
" style="fill:none;"/>
  </g>
  <g id="axes_1">
   <g id="patch_2">
    <path d="M 54.875 313 
L 552.545695 313 
L 552.545695 0 
L 54.875 0 
z
" style="fill:none;"/>
   </g>
   <g id="matplotlib.axis_1">
    <g id="xtick_1">
     <g id="text_1">
      <!-- −0.3 -->
      <defs>
       <path d="M 55.421875 29.59375 
L 55.421875 21.390625 
L 4.5 21.390625 
L 4.5 29.59375 
z
" id="Helvetica-8722"/>
       <path d="M 27.046875 69.921875 
Q 40.625 69.921875 46.6875 58.734375 
Q 51.375 50.09375 51.375 35.0625 
Q 51.375 20.796875 47.125 11.46875 
Q 40.96875 -1.90625 27 -1.90625 
Q 14.40625 -1.90625 8.25 9.03125 
Q 3.125 18.171875 3.125 33.546875 
Q 3.125 45.453125 6.203125 54 
Q 11.96875 69.921875 27.046875 69.921875 
z
M 26.953125 6.109375 
Q 33.796875 6.109375 37.84375 12.15625 
Q 41.890625 18.21875 41.890625 34.71875 
Q 41.890625 46.625 38.953125 54.3125 
Q 36.03125 62.015625 27.59375 62.015625 
Q 19.828125 62.015625 16.234375 54.703125 
Q 12.640625 47.40625 12.640625 33.203125 
Q 12.640625 22.515625 14.9375 16.015625 
Q 18.453125 6.109375 26.953125 6.109375 
z
" id="Helvetica-48"/>
       <path d="M 8.546875 10.640625 
L 18.75 10.640625 
L 18.75 0 
L 8.546875 0 
z
" id="Helvetica-46"/>
       <path d="M 25.984375 -1.90625 
Q 13.578125 -1.90625 7.984375 4.90625 
Q 2.390625 11.71875 2.390625 21.484375 
L 11.578125 21.484375 
Q 12.15625 14.703125 14.109375 11.625 
Q 17.53125 6.109375 26.46875 6.109375 
Q 33.40625 6.109375 37.59375 9.8125 
Q 41.796875 13.53125 41.796875 19.390625 
Q 41.796875 26.609375 37.375 29.484375 
Q 32.953125 32.375 25.09375 32.375 
Q 24.21875 32.375 23.3125 32.34375 
Q 22.40625 32.328125 21.484375 32.28125 
L 21.484375 40.046875 
Q 22.859375 39.890625 23.78125 39.84375 
Q 24.703125 39.796875 25.78125 39.796875 
Q 30.71875 39.796875 33.890625 41.359375 
Q 39.453125 44.09375 39.453125 51.125 
Q 39.453125 56.34375 35.734375 59.171875 
Q 32.03125 62.015625 27.09375 62.015625 
Q 18.3125 62.015625 14.9375 56.15625 
Q 13.09375 52.9375 12.84375 46.96875 
L 4.15625 46.96875 
Q 4.15625 54.78125 7.28125 60.25 
Q 12.640625 70.015625 26.171875 70.015625 
Q 36.859375 70.015625 42.71875 65.25 
Q 48.578125 60.5 48.578125 51.46875 
Q 48.578125 45.015625 45.125 41.015625 
Q 42.96875 38.53125 39.546875 37.109375 
Q 45.0625 35.59375 48.15625 31.265625 
Q 51.265625 26.953125 51.265625 20.703125 
Q 51.265625 10.6875 44.671875 4.390625 
Q 38.09375 -1.90625 25.984375 -1.90625 
z
" id="Helvetica-51"/>
      </defs>
      <g transform="translate(37.108437 332.912188)scale(0.18 -0.18)">
       <use xlink:href="#Helvetica-8722"/>
       <use x="58.398438" xlink:href="#Helvetica-48"/>
       <use x="114.013672" xlink:href="#Helvetica-46"/>
       <use x="141.796875" xlink:href="#Helvetica-51"/>
      </g>
     </g>
    </g>
    <g id="xtick_2">
     <g id="text_2">
      <!-- −0.2 -->
      <defs>
       <path d="M 3.125 0 
Q 3.609375 9.03125 6.859375 15.71875 
Q 10.109375 22.40625 19.53125 27.875 
L 28.90625 33.296875 
Q 35.203125 36.96875 37.75 39.546875 
Q 41.75 43.609375 41.75 48.828125 
Q 41.75 54.9375 38.078125 58.515625 
Q 34.421875 62.109375 28.328125 62.109375 
Q 19.28125 62.109375 15.828125 55.28125 
Q 13.96875 51.609375 13.765625 45.125 
L 4.828125 45.125 
Q 4.984375 54.25 8.203125 60.015625 
Q 13.921875 70.171875 28.375 70.171875 
Q 40.375 70.171875 45.921875 63.671875 
Q 51.46875 57.171875 51.46875 49.21875 
Q 51.46875 40.828125 45.5625 34.859375 
Q 42.140625 31.390625 33.296875 26.46875 
L 26.609375 22.75 
Q 21.828125 20.125 19.09375 17.71875 
Q 14.203125 13.484375 12.9375 8.296875 
L 51.125 8.296875 
L 51.125 0 
L 3.125 0 
z
" id="Helvetica-50"/>
      </defs>
      <g transform="translate(202.998669 332.912188)scale(0.18 -0.18)">
       <use xlink:href="#Helvetica-8722"/>
       <use x="58.398438" xlink:href="#Helvetica-48"/>
       <use x="114.013672" xlink:href="#Helvetica-46"/>
       <use x="141.796875" xlink:href="#Helvetica-50"/>
      </g>
     </g>
    </g>
    <g id="xtick_3">
     <g id="text_3">
      <!-- −0.1 -->
      <defs>
       <path d="M 9.578125 49.515625 
L 9.578125 56.25 
Q 19.09375 57.171875 22.84375 59.34375 
Q 26.609375 61.53125 28.46875 69.625 
L 35.40625 69.625 
L 35.40625 0 
L 26.03125 0 
L 26.03125 49.515625 
z
" id="Helvetica-49"/>
      </defs>
      <g transform="translate(368.888901 332.912188)scale(0.18 -0.18)">
       <use xlink:href="#Helvetica-8722"/>
       <use x="58.398438" xlink:href="#Helvetica-48"/>
       <use x="114.013672" xlink:href="#Helvetica-46"/>
       <use x="141.796875" xlink:href="#Helvetica-49"/>
      </g>
     </g>
    </g>
    <g id="xtick_4">
     <g id="text_4">
      <!-- 0.0 -->
      <g transform="translate(540.035695 332.912188)scale(0.18 -0.18)">
       <use xlink:href="#Helvetica-48"/>
       <use x="55.615234" xlink:href="#Helvetica-46"/>
       <use x="83.398438" xlink:href="#Helvetica-48"/>
      </g>
     </g>
    </g>
    <g id="text_5">
     <!-- Difference in win probability human move and optimal move -->
     <defs>
      <path d="M 35.15625 8.296875 
Q 40.09375 8.296875 43.265625 9.328125 
Q 48.921875 11.234375 52.546875 16.65625 
Q 55.421875 21 56.6875 27.78125 
Q 57.421875 31.84375 57.421875 35.296875 
Q 57.421875 48.640625 52.125 56 
Q 46.828125 63.375 35.0625 63.375 
L 17.828125 63.375 
L 17.828125 8.296875 
z
M 8.0625 71.734375 
L 37.109375 71.734375 
Q 51.90625 71.734375 60.0625 61.234375 
Q 67.328125 51.765625 67.328125 36.96875 
Q 67.328125 25.53125 63.03125 16.3125 
Q 55.46875 0 37.015625 0 
L 8.0625 0 
z
" id="Helvetica-68"/>
      <path d="M 6.453125 52.046875 
L 15.375 52.046875 
L 15.375 0 
L 6.453125 0 
z
M 6.453125 71.734375 
L 15.375 71.734375 
L 15.375 61.765625 
L 6.453125 61.765625 
z
" id="Helvetica-105"/>
      <path d="M 8.640625 60.25 
Q 8.84375 65.71875 10.546875 68.265625 
Q 13.625 72.75 22.40625 72.75 
Q 23.25 72.75 24.125 72.703125 
Q 25 72.65625 26.125 72.5625 
L 26.125 64.546875 
Q 24.75 64.65625 24.140625 64.671875 
Q 23.53125 64.703125 23 64.703125 
Q 19 64.703125 18.21875 62.625 
Q 17.4375 60.546875 17.4375 52.046875 
L 26.125 52.046875 
L 26.125 45.125 
L 17.328125 45.125 
L 17.328125 0 
L 8.640625 0 
L 8.640625 45.125 
L 1.375 45.125 
L 1.375 52.046875 
L 8.640625 52.046875 
L 8.640625 60.25 
z
" id="Helvetica-102"/>
      <path d="M 28.21875 53.46875 
Q 33.796875 53.46875 39.015625 50.859375 
Q 44.234375 48.25 46.96875 44.09375 
Q 49.609375 40.140625 50.484375 34.859375 
Q 51.265625 31.25 51.265625 23.34375 
L 12.9375 23.34375 
Q 13.1875 15.375 16.703125 10.5625 
Q 20.21875 5.765625 27.59375 5.765625 
Q 34.46875 5.765625 38.578125 10.296875 
Q 40.921875 12.9375 41.890625 16.40625 
L 50.53125 16.40625 
Q 50.203125 13.53125 48.265625 9.984375 
Q 46.34375 6.453125 43.953125 4.203125 
Q 39.9375 0.296875 34.03125 -1.078125 
Q 30.859375 -1.859375 26.859375 -1.859375 
Q 17.09375 -1.859375 10.296875 5.25 
Q 3.515625 12.359375 3.515625 25.140625 
Q 3.515625 37.75 10.34375 45.609375 
Q 17.1875 53.46875 28.21875 53.46875 
z
M 42.234375 30.328125 
Q 41.703125 36.03125 39.75 39.453125 
Q 36.140625 45.796875 27.6875 45.796875 
Q 21.625 45.796875 17.515625 41.421875 
Q 13.421875 37.0625 13.1875 30.328125 
z
M 27.390625 53.5625 
z
" id="Helvetica-101"/>
      <path d="M 6.6875 52.296875 
L 15.046875 52.296875 
L 15.046875 43.265625 
Q 16.0625 45.90625 20.0625 49.6875 
Q 24.078125 53.46875 29.296875 53.46875 
Q 29.546875 53.46875 30.125 53.421875 
Q 30.71875 53.375 32.125 53.21875 
L 32.125 43.953125 
Q 31.34375 44.09375 30.6875 44.140625 
Q 30.03125 44.1875 29.25 44.1875 
Q 22.609375 44.1875 19.046875 39.90625 
Q 15.484375 35.640625 15.484375 30.078125 
L 15.484375 0 
L 6.6875 0 
z
" id="Helvetica-114"/>
      <path d="M 6.453125 52.296875 
L 14.796875 52.296875 
L 14.796875 44.875 
Q 18.5 49.46875 22.65625 51.46875 
Q 26.8125 53.46875 31.890625 53.46875 
Q 43.015625 53.46875 46.921875 45.703125 
Q 49.078125 41.453125 49.078125 33.546875 
L 49.078125 0 
L 40.140625 0 
L 40.140625 32.953125 
Q 40.140625 37.75 38.71875 40.671875 
Q 36.375 45.5625 30.21875 45.5625 
Q 27.09375 45.5625 25.09375 44.921875 
Q 21.484375 43.84375 18.75 40.625 
Q 16.546875 38.03125 15.890625 35.265625 
Q 15.234375 32.515625 15.234375 27.390625 
L 15.234375 0 
L 6.453125 0 
z
M 27.09375 53.5625 
z
" id="Helvetica-110"/>
      <path d="M 26.609375 53.8125 
Q 35.453125 53.8125 40.984375 49.515625 
Q 46.53125 45.21875 47.65625 34.71875 
L 39.109375 34.71875 
Q 38.328125 39.546875 35.546875 42.75 
Q 32.765625 45.953125 26.609375 45.953125 
Q 18.21875 45.953125 14.59375 37.75 
Q 12.25 32.421875 12.25 24.609375 
Q 12.25 16.75 15.5625 11.375 
Q 18.890625 6 26.03125 6 
Q 31.5 6 34.6875 9.34375 
Q 37.890625 12.703125 39.109375 18.5 
L 47.65625 18.5 
Q 46.1875 8.109375 40.328125 3.296875 
Q 34.46875 -1.515625 25.34375 -1.515625 
Q 15.09375 -1.515625 8.984375 5.984375 
Q 2.875 13.484375 2.875 24.703125 
Q 2.875 38.484375 9.5625 46.140625 
Q 16.265625 53.8125 26.609375 53.8125 
z
M 25.25 53.5625 
z
" id="Helvetica-99"/>
      <path id="Helvetica-32"/>
      <path d="M 10.5 52.296875 
L 20.5625 11.078125 
L 30.765625 52.296875 
L 40.625 52.296875 
L 50.875 11.328125 
L 61.578125 52.296875 
L 70.359375 52.296875 
L 55.171875 0 
L 46.046875 0 
L 35.40625 40.484375 
L 25.09375 0 
L 15.96875 0 
L 0.875 52.296875 
z
" id="Helvetica-119"/>
      <path d="M 28.515625 5.90625 
Q 34.671875 5.90625 38.75 11.0625 
Q 42.828125 16.21875 42.828125 26.46875 
Q 42.828125 32.71875 41.015625 37.203125 
Q 37.59375 45.84375 28.515625 45.84375 
Q 19.390625 45.84375 16.015625 36.71875 
Q 14.203125 31.84375 14.203125 24.3125 
Q 14.203125 18.265625 16.015625 14.015625 
Q 19.4375 5.90625 28.515625 5.90625 
z
M 5.765625 52.046875 
L 14.3125 52.046875 
L 14.3125 45.125 
Q 16.9375 48.6875 20.0625 50.640625 
Q 24.515625 53.5625 30.515625 53.5625 
Q 39.40625 53.5625 45.609375 46.75 
Q 51.8125 39.9375 51.8125 27.296875 
Q 51.8125 10.203125 42.875 2.875 
Q 37.203125 -1.765625 29.6875 -1.765625 
Q 23.78125 -1.765625 19.78125 0.828125 
Q 17.4375 2.296875 14.546875 5.859375 
L 14.546875 -20.84375 
L 5.765625 -20.84375 
z
" id="Helvetica-112"/>
      <path d="M 27.203125 5.671875 
Q 35.9375 5.671875 39.1875 12.28125 
Q 42.4375 18.890625 42.4375 27 
Q 42.4375 34.328125 40.09375 38.921875 
Q 36.375 46.140625 27.296875 46.140625 
Q 19.234375 46.140625 15.578125 39.984375 
Q 11.921875 33.84375 11.921875 25.140625 
Q 11.921875 16.796875 15.578125 11.234375 
Q 19.234375 5.671875 27.203125 5.671875 
z
M 27.546875 53.8125 
Q 37.640625 53.8125 44.625 47.0625 
Q 51.609375 40.328125 51.609375 27.25 
Q 51.609375 14.59375 45.453125 6.34375 
Q 39.3125 -1.90625 26.375 -1.90625 
Q 15.578125 -1.90625 9.21875 5.390625 
Q 2.875 12.703125 2.875 25 
Q 2.875 38.1875 9.5625 46 
Q 16.265625 53.8125 27.546875 53.8125 
z
M 27.25 53.5625 
z
" id="Helvetica-111"/>
      <path d="M 5.765625 71.96875 
L 14.3125 71.96875 
L 14.3125 45.953125 
Q 17.1875 49.703125 21.1875 51.671875 
Q 25.203125 53.65625 29.890625 53.65625 
Q 39.65625 53.65625 45.734375 46.9375 
Q 51.8125 40.234375 51.8125 27.15625 
Q 51.8125 14.75 45.796875 6.546875 
Q 39.796875 -1.65625 29.15625 -1.65625 
Q 23.1875 -1.65625 19.09375 1.21875 
Q 16.65625 2.9375 13.875 6.6875 
L 13.875 0 
L 5.765625 0 
z
M 28.609375 6.109375 
Q 35.75 6.109375 39.28125 11.765625 
Q 42.828125 17.4375 42.828125 26.703125 
Q 42.828125 34.96875 39.28125 40.375 
Q 35.75 45.796875 28.859375 45.796875 
Q 22.859375 45.796875 18.328125 41.359375 
Q 13.8125 36.921875 13.8125 26.703125 
Q 13.8125 19.34375 15.671875 14.75 
Q 19.140625 6.109375 28.609375 6.109375 
z
" id="Helvetica-98"/>
      <path d="M 13.1875 13.921875 
Q 13.1875 10.109375 15.96875 7.90625 
Q 18.75 5.71875 22.5625 5.71875 
Q 27.203125 5.71875 31.546875 7.859375 
Q 38.875 11.421875 38.875 19.53125 
L 38.875 26.609375 
Q 37.25 25.59375 34.703125 24.90625 
Q 32.171875 24.21875 29.734375 23.921875 
L 24.421875 23.25 
Q 19.625 22.609375 17.234375 21.234375 
Q 13.1875 18.953125 13.1875 13.921875 
z
M 34.46875 31.6875 
Q 37.5 32.078125 38.53125 34.234375 
Q 39.109375 35.40625 39.109375 37.59375 
Q 39.109375 42.09375 35.90625 44.109375 
Q 32.71875 46.140625 26.765625 46.140625 
Q 19.875 46.140625 17 42.4375 
Q 15.375 40.375 14.890625 36.328125 
L 6.6875 36.328125 
Q 6.9375 46 12.96875 49.78125 
Q 19 53.5625 26.953125 53.5625 
Q 36.1875 53.5625 41.9375 50.046875 
Q 47.65625 46.53125 47.65625 39.109375 
L 47.65625 8.984375 
Q 47.65625 7.625 48.21875 6.78125 
Q 48.78125 5.953125 50.59375 5.953125 
Q 51.171875 5.953125 51.90625 6.03125 
Q 52.640625 6.109375 53.46875 6.25 
L 53.46875 -0.25 
Q 51.421875 -0.828125 50.34375 -0.96875 
Q 49.265625 -1.125 47.40625 -1.125 
Q 42.875 -1.125 40.828125 2.09375 
Q 39.75 3.8125 39.3125 6.9375 
Q 36.625 3.421875 31.59375 0.828125 
Q 26.5625 -1.765625 20.515625 -1.765625 
Q 13.234375 -1.765625 8.609375 2.65625 
Q 4 7.078125 4 13.71875 
Q 4 21 8.546875 25 
Q 13.09375 29 20.453125 29.9375 
z
M 27.203125 53.5625 
z
" id="Helvetica-97"/>
      <path d="M 6.6875 71.734375 
L 15.484375 71.734375 
L 15.484375 0 
L 6.6875 0 
z
" id="Helvetica-108"/>
      <path d="M 8.203125 66.890625 
L 17.09375 66.890625 
L 17.09375 52.296875 
L 25.4375 52.296875 
L 25.4375 45.125 
L 17.09375 45.125 
L 17.09375 10.984375 
Q 17.09375 8.25 18.953125 7.328125 
Q 19.96875 6.78125 22.359375 6.78125 
Q 23 6.78125 23.734375 6.8125 
Q 24.46875 6.84375 25.4375 6.9375 
L 25.4375 0 
Q 23.921875 -0.4375 22.28125 -0.625 
Q 20.65625 -0.828125 18.75 -0.828125 
Q 12.59375 -0.828125 10.390625 2.3125 
Q 8.203125 5.46875 8.203125 10.5 
L 8.203125 45.125 
L 1.125 45.125 
L 1.125 52.296875 
L 8.203125 52.296875 
z
" id="Helvetica-116"/>
      <path d="M 39.109375 52.296875 
L 48.828125 52.296875 
Q 46.96875 47.265625 40.578125 29.34375 
Q 35.796875 15.875 32.5625 7.375 
Q 24.953125 -12.640625 21.828125 -17.03125 
Q 18.703125 -21.4375 11.078125 -21.4375 
Q 9.234375 -21.4375 8.234375 -21.28125 
Q 7.234375 -21.140625 5.765625 -20.75 
L 5.765625 -12.75 
Q 8.0625 -13.375 9.078125 -13.515625 
Q 10.109375 -13.671875 10.890625 -13.671875 
Q 13.328125 -13.671875 14.46875 -12.859375 
Q 15.625 -12.0625 16.40625 -10.890625 
Q 16.65625 -10.5 18.15625 -6.875 
Q 19.671875 -3.265625 20.359375 -1.515625 
L 1.03125 52.296875 
L 10.984375 52.296875 
L 25 9.71875 
z
M 24.953125 53.5625 
z
" id="Helvetica-121"/>
      <path d="M 6.453125 71.96875 
L 15.234375 71.96875 
L 15.234375 45.21875 
Q 18.359375 49.171875 20.84375 50.78125 
Q 25.09375 53.5625 31.453125 53.5625 
Q 42.828125 53.5625 46.875 45.609375 
Q 49.078125 41.265625 49.078125 33.546875 
L 49.078125 0 
L 40.046875 0 
L 40.046875 32.953125 
Q 40.046875 38.71875 38.578125 41.40625 
Q 36.1875 45.703125 29.59375 45.703125 
Q 24.125 45.703125 19.671875 41.9375 
Q 15.234375 38.1875 15.234375 27.734375 
L 15.234375 0 
L 6.453125 0 
z
" id="Helvetica-104"/>
      <path d="M 15.234375 52.296875 
L 15.234375 17.578125 
Q 15.234375 13.578125 16.5 11.03125 
Q 18.84375 6.34375 25.25 6.34375 
Q 34.421875 6.34375 37.75 14.546875 
Q 39.546875 18.953125 39.546875 26.609375 
L 39.546875 52.296875 
L 48.34375 52.296875 
L 48.34375 0 
L 40.046875 0 
L 40.140625 7.71875 
Q 38.421875 4.734375 35.890625 2.6875 
Q 30.859375 -1.421875 23.6875 -1.421875 
Q 12.5 -1.421875 8.453125 6.0625 
Q 6.25 10.0625 6.25 16.75 
L 6.25 52.296875 
z
M 27.296875 53.5625 
z
" id="Helvetica-117"/>
      <path d="M 6.453125 52.296875 
L 15.140625 52.296875 
L 15.140625 44.875 
Q 18.265625 48.734375 20.796875 50.484375 
Q 25.140625 53.46875 30.671875 53.46875 
Q 36.921875 53.46875 40.71875 50.390625 
Q 42.875 48.640625 44.625 45.21875 
Q 47.5625 49.421875 51.515625 51.4375 
Q 55.46875 53.46875 60.40625 53.46875 
Q 70.953125 53.46875 74.75 45.84375 
Q 76.8125 41.75 76.8125 34.8125 
L 76.8125 0 
L 67.671875 0 
L 67.671875 36.328125 
Q 67.671875 41.546875 65.0625 43.5 
Q 62.453125 45.453125 58.6875 45.453125 
Q 53.515625 45.453125 49.78125 41.984375 
Q 46.046875 38.53125 46.046875 30.421875 
L 46.046875 0 
L 37.109375 0 
L 37.109375 34.125 
Q 37.109375 39.453125 35.84375 41.890625 
Q 33.84375 45.5625 28.375 45.5625 
Q 23.390625 45.5625 19.3125 41.703125 
Q 15.234375 37.84375 15.234375 27.734375 
L 15.234375 0 
L 6.453125 0 
z
" id="Helvetica-109"/>
      <path d="M 10.75 52.296875 
L 24.703125 9.71875 
L 39.3125 52.296875 
L 48.921875 52.296875 
L 29.203125 0 
L 19.828125 0 
L 0.53125 52.296875 
z
" id="Helvetica-118"/>
      <path d="M 12.015625 25.53125 
Q 12.015625 17.140625 15.578125 11.46875 
Q 19.140625 5.8125 27 5.8125 
Q 33.109375 5.8125 37.03125 11.0625 
Q 40.96875 16.3125 40.96875 26.125 
Q 40.96875 36.03125 36.90625 40.796875 
Q 32.859375 45.5625 26.90625 45.5625 
Q 20.265625 45.5625 16.140625 40.484375 
Q 12.015625 35.40625 12.015625 25.53125 
z
M 25.25 53.21875 
Q 31.25 53.21875 35.296875 50.6875 
Q 37.640625 49.21875 40.625 45.5625 
L 40.625 71.96875 
L 49.078125 71.96875 
L 49.078125 0 
L 41.15625 0 
L 41.15625 7.28125 
Q 38.09375 2.4375 33.890625 0.28125 
Q 29.6875 -1.859375 24.265625 -1.859375 
Q 15.53125 -1.859375 9.125 5.484375 
Q 2.734375 12.84375 2.734375 25.046875 
Q 2.734375 36.46875 8.5625 44.84375 
Q 14.40625 53.21875 25.25 53.21875 
z
" id="Helvetica-100"/>
     </defs>
     <g transform="translate(39.152535 355.214063)scale(0.2 -0.2)">
      <use xlink:href="#Helvetica-68"/>
      <use x="72.216797" xlink:href="#Helvetica-105"/>
      <use x="94.433594" xlink:href="#Helvetica-102"/>
      <use x="122.216797" xlink:href="#Helvetica-102"/>
      <use x="150" xlink:href="#Helvetica-101"/>
      <use x="205.615234" xlink:href="#Helvetica-114"/>
      <use x="238.916016" xlink:href="#Helvetica-101"/>
      <use x="294.53125" xlink:href="#Helvetica-110"/>
      <use x="350.146484" xlink:href="#Helvetica-99"/>
      <use x="400.146484" xlink:href="#Helvetica-101"/>
      <use x="455.761719" xlink:href="#Helvetica-32"/>
      <use x="483.544922" xlink:href="#Helvetica-105"/>
      <use x="505.761719" xlink:href="#Helvetica-110"/>
      <use x="561.376953" xlink:href="#Helvetica-32"/>
      <use x="589.160156" xlink:href="#Helvetica-119"/>
      <use x="661.376953" xlink:href="#Helvetica-105"/>
      <use x="683.59375" xlink:href="#Helvetica-110"/>
      <use x="739.208984" xlink:href="#Helvetica-32"/>
      <use x="766.992188" xlink:href="#Helvetica-112"/>
      <use x="822.607422" xlink:href="#Helvetica-114"/>
      <use x="855.908203" xlink:href="#Helvetica-111"/>
      <use x="911.523438" xlink:href="#Helvetica-98"/>
      <use x="967.138672" xlink:href="#Helvetica-97"/>
      <use x="1022.753906" xlink:href="#Helvetica-98"/>
      <use x="1078.369141" xlink:href="#Helvetica-105"/>
      <use x="1100.585938" xlink:href="#Helvetica-108"/>
      <use x="1122.802734" xlink:href="#Helvetica-105"/>
      <use x="1145.019531" xlink:href="#Helvetica-116"/>
      <use x="1172.802734" xlink:href="#Helvetica-121"/>
      <use x="1222.802734" xlink:href="#Helvetica-32"/>
      <use x="1250.585938" xlink:href="#Helvetica-104"/>
      <use x="1306.201172" xlink:href="#Helvetica-117"/>
      <use x="1361.816406" xlink:href="#Helvetica-109"/>
      <use x="1445.117188" xlink:href="#Helvetica-97"/>
      <use x="1500.732422" xlink:href="#Helvetica-110"/>
      <use x="1556.347656" xlink:href="#Helvetica-32"/>
      <use x="1584.130859" xlink:href="#Helvetica-109"/>
      <use x="1667.431641" xlink:href="#Helvetica-111"/>
      <use x="1723.046875" xlink:href="#Helvetica-118"/>
      <use x="1773.046875" xlink:href="#Helvetica-101"/>
      <use x="1828.662109" xlink:href="#Helvetica-32"/>
      <use x="1856.445312" xlink:href="#Helvetica-97"/>
      <use x="1912.060547" xlink:href="#Helvetica-110"/>
      <use x="1967.675781" xlink:href="#Helvetica-100"/>
      <use x="2023.291016" xlink:href="#Helvetica-32"/>
      <use x="2051.074219" xlink:href="#Helvetica-111"/>
      <use x="2106.689453" xlink:href="#Helvetica-112"/>
      <use x="2162.304688" xlink:href="#Helvetica-116"/>
      <use x="2190.087891" xlink:href="#Helvetica-105"/>
      <use x="2212.304688" xlink:href="#Helvetica-109"/>
      <use x="2295.605469" xlink:href="#Helvetica-97"/>
      <use x="2351.220703" xlink:href="#Helvetica-108"/>
      <use x="2373.4375" xlink:href="#Helvetica-32"/>
      <use x="2401.220703" xlink:href="#Helvetica-109"/>
      <use x="2484.521484" xlink:href="#Helvetica-111"/>
      <use x="2540.136719" xlink:href="#Helvetica-118"/>
      <use x="2590.136719" xlink:href="#Helvetica-101"/>
     </g>
    </g>
   </g>
   <g id="matplotlib.axis_2">
    <g id="ytick_1">
     <g id="line2d_1">
      <path clip-path="url(#p4c21365876)" d="M 54.875 262.516129 
L 552.545695 262.516129 
" style="fill:none;stroke:#b0b0b0;stroke-linecap:square;stroke-width:0.8;"/>
     </g>
     <g id="text_6">
      <!-- 0.2 -->
      <g transform="translate(22.855 268.972223)scale(0.18 -0.18)">
       <use xlink:href="#Helvetica-48"/>
       <use x="55.615234" xlink:href="#Helvetica-46"/>
       <use x="83.398438" xlink:href="#Helvetica-50"/>
      </g>
     </g>
    </g>
    <g id="ytick_2">
     <g id="line2d_2">
      <path clip-path="url(#p4c21365876)" d="M 54.875 161.548387 
L 552.545695 161.548387 
" style="fill:none;stroke:#b0b0b0;stroke-linecap:square;stroke-width:0.8;"/>
     </g>
     <g id="text_7">
      <!-- 0.4 -->
      <defs>
       <path d="M 33.0625 24.75 
L 33.0625 56.453125 
L 10.640625 24.75 
z
M 33.203125 0 
L 33.203125 17.09375 
L 2.546875 17.09375 
L 2.546875 25.6875 
L 34.578125 70.125 
L 42 70.125 
L 42 24.75 
L 52.296875 24.75 
L 52.296875 17.09375 
L 42 17.09375 
L 42 0 
z
" id="Helvetica-52"/>
      </defs>
      <g transform="translate(22.855 168.004481)scale(0.18 -0.18)">
       <use xlink:href="#Helvetica-48"/>
       <use x="55.615234" xlink:href="#Helvetica-46"/>
       <use x="83.398438" xlink:href="#Helvetica-52"/>
      </g>
     </g>
    </g>
    <g id="ytick_3">
     <g id="line2d_3">
      <path clip-path="url(#p4c21365876)" d="M 54.875 60.580645 
L 552.545695 60.580645 
" style="fill:none;stroke:#b0b0b0;stroke-linecap:square;stroke-width:0.8;"/>
     </g>
     <g id="text_8">
      <!-- 0.6 -->
      <defs>
       <path d="M 29.25 70.21875 
Q 40.96875 70.21875 45.578125 64.140625 
Q 50.203125 58.0625 50.203125 51.609375 
L 41.5 51.609375 
Q 40.71875 55.765625 39.015625 58.109375 
Q 35.84375 62.5 29.390625 62.5 
Q 22.015625 62.5 17.671875 55.6875 
Q 13.328125 48.875 12.84375 36.1875 
Q 15.875 40.625 20.453125 42.828125 
Q 24.65625 44.78125 29.828125 44.78125 
Q 38.625 44.78125 45.15625 39.15625 
Q 51.703125 33.546875 51.703125 22.40625 
Q 51.703125 12.890625 45.5 5.53125 
Q 39.3125 -1.8125 27.828125 -1.8125 
Q 18.015625 -1.8125 10.890625 5.640625 
Q 3.765625 13.09375 3.765625 30.71875 
Q 3.765625 43.75 6.9375 52.828125 
Q 13.03125 70.21875 29.25 70.21875 
z
M 28.609375 6 
Q 35.546875 6 38.984375 10.65625 
Q 42.4375 15.328125 42.4375 21.6875 
Q 42.4375 27.046875 39.359375 31.90625 
Q 36.28125 36.765625 28.171875 36.765625 
Q 22.515625 36.765625 18.234375 33 
Q 13.96875 29.25 13.96875 21.6875 
Q 13.96875 15.046875 17.84375 10.515625 
Q 21.734375 6 28.609375 6 
z
" id="Helvetica-54"/>
      </defs>
      <g transform="translate(22.855 67.036739)scale(0.18 -0.18)">
       <use xlink:href="#Helvetica-48"/>
       <use x="55.615234" xlink:href="#Helvetica-46"/>
       <use x="83.398438" xlink:href="#Helvetica-54"/>
      </g>
     </g>
    </g>
    <g id="text_9">
     <!-- Matching Accuracy -->
     <defs>
      <path d="M 7.375 71.734375 
L 21.296875 71.734375 
L 41.890625 11.078125 
L 62.359375 71.734375 
L 76.125 71.734375 
L 76.125 0 
L 66.890625 0 
L 66.890625 42.328125 
Q 66.890625 44.53125 66.984375 49.609375 
Q 67.09375 54.6875 67.09375 60.5 
L 46.625 0 
L 37.015625 0 
L 16.40625 60.5 
L 16.40625 58.296875 
Q 16.40625 55.671875 16.53125 50.265625 
Q 16.65625 44.875 16.65625 42.328125 
L 16.65625 0 
L 7.375 0 
z
" id="Helvetica-77"/>
      <path d="M 24.90625 53.21875 
Q 31.0625 53.21875 35.640625 50.203125 
Q 38.140625 48.484375 40.71875 45.21875 
L 40.71875 51.8125 
L 48.828125 51.8125 
L 48.828125 4.25 
Q 48.828125 -5.71875 45.90625 -11.46875 
Q 40.4375 -22.125 25.25 -22.125 
Q 16.796875 -22.125 11.03125 -18.328125 
Q 5.28125 -14.546875 4.59375 -6.5 
L 13.53125 -6.5 
Q 14.15625 -10.015625 16.0625 -11.921875 
Q 19.046875 -14.84375 25.4375 -14.84375 
Q 35.546875 -14.84375 38.671875 -7.71875 
Q 40.53125 -3.515625 40.375 7.28125 
Q 37.75 3.265625 34.03125 1.3125 
Q 30.328125 -0.640625 24.21875 -0.640625 
Q 15.71875 -0.640625 9.34375 5.390625 
Q 2.984375 11.421875 2.984375 25.34375 
Q 2.984375 38.484375 9.40625 45.84375 
Q 15.828125 53.21875 24.90625 53.21875 
z
M 40.71875 26.375 
Q 40.71875 36.078125 36.71875 40.765625 
Q 32.71875 45.453125 26.515625 45.453125 
Q 17.234375 45.453125 13.8125 36.765625 
Q 12.015625 32.125 12.015625 24.609375 
Q 12.015625 15.765625 15.59375 11.15625 
Q 19.1875 6.546875 25.25 6.546875 
Q 34.71875 6.546875 38.578125 15.09375 
Q 40.71875 19.921875 40.71875 26.375 
z
M 25.921875 53.5625 
z
" id="Helvetica-103"/>
      <path d="M 44.4375 29.390625 
L 33.546875 61.078125 
L 21.96875 29.390625 
z
M 28.46875 71.734375 
L 39.453125 71.734375 
L 65.484375 0 
L 54.828125 0 
L 47.5625 21.484375 
L 19.1875 21.484375 
L 11.421875 0 
L 1.46875 0 
z
M 33.5 71.734375 
z
" id="Helvetica-65"/>
     </defs>
     <g transform="translate(14.43 240.973438)rotate(-90)scale(0.2 -0.2)">
      <use xlink:href="#Helvetica-77"/>
      <use x="83.300781" xlink:href="#Helvetica-97"/>
      <use x="138.916016" xlink:href="#Helvetica-116"/>
      <use x="166.699219" xlink:href="#Helvetica-99"/>
      <use x="216.699219" xlink:href="#Helvetica-104"/>
      <use x="272.314453" xlink:href="#Helvetica-105"/>
      <use x="294.53125" xlink:href="#Helvetica-110"/>
      <use x="350.146484" xlink:href="#Helvetica-103"/>
      <use x="405.761719" xlink:href="#Helvetica-32"/>
      <use x="433.544922" xlink:href="#Helvetica-65"/>
      <use x="500.244141" xlink:href="#Helvetica-99"/>
      <use x="550.244141" xlink:href="#Helvetica-99"/>
      <use x="600.244141" xlink:href="#Helvetica-117"/>
      <use x="655.859375" xlink:href="#Helvetica-114"/>
      <use x="689.160156" xlink:href="#Helvetica-97"/>
      <use x="744.775391" xlink:href="#Helvetica-99"/>
      <use x="794.775391" xlink:href="#Helvetica-121"/>
     </g>
    </g>
   </g>
   <g id="line2d_4">
    <path clip-path="url(#p4c21365876)" d="M -1 237.246619 
L 5.10793 237.008233 
L 21.696954 237.22483 
L 38.285977 236.283003 
L 54.875 236.379985 
L 88.053046 233.595207 
L 104.64207 232.499795 
L 121.231093 229.233234 
L 137.820116 225.696214 
L 154.409139 225.255002 
L 170.998162 222.720138 
L 187.587185 219.024452 
L 204.176209 212.982629 
L 220.765232 205.363166 
L 237.354255 192.180806 
L 253.943278 172.752042 
L 270.532301 163.77206 
L 287.121324 158.921483 
L 303.710348 144.825642 
L 320.299371 149.404772 
L 336.888394 135.632553 
L 353.477417 115.215082 
L 370.06644 119.669756 
L 386.655464 107.143661 
L 403.244487 95.780926 
L 419.83351 86.674327 
L 436.422533 68.715783 
L 453.011556 57.82723 
L 469.600579 62.596783 
L 486.189603 65.108031 
L 502.778626 44.047259 
L 519.367649 27.84308 
L 535.956672 28.495083 
L 552.545695 27.35146 
L 569.134718 26.037368 
L 585.723742 23.743643 
L 602.312765 14.951532 
L 618.901788 22.366074 
L 635.490811 30.723367 
L 649 25.315142 
L 649 25.315142 
" style="fill:none;stroke:#f8765c;stroke-linecap:square;stroke-width:3;"/>
   </g>
   <g id="line2d_5">
    <path clip-path="url(#p4c21365876)" d="M -1 239.15018 
L 5.10793 238.224053 
L 21.696954 238.889102 
L 38.285977 237.127568 
L 54.875 237.347834 
L 71.464023 235.78411 
L 88.053046 232.69006 
L 104.64207 232.475803 
L 121.231093 229.714548 
L 137.820116 224.310578 
L 154.409139 223.244849 
L 170.998162 220.775532 
L 187.587185 215.721172 
L 204.176209 208.312351 
L 220.765232 198.652589 
L 237.354255 184.415811 
L 253.943278 162.160578 
L 270.532301 153.502814 
L 287.121324 148.656853 
L 303.710348 133.90896 
L 320.299371 138.575187 
L 336.888394 124.730474 
L 353.477417 104.227722 
L 370.06644 108.952451 
L 386.655464 96.141871 
L 403.244487 85.501111 
L 419.83351 76.599151 
L 436.422533 58.472601 
L 453.011556 48.65013 
L 469.600579 54.580447 
L 486.189603 57.127853 
L 502.778626 36.0194 
L 519.367649 20.294104 
L 552.545695 19.447701 
L 569.134718 17.305713 
L 585.723742 15.949977 
L 602.312765 12.706557 
L 618.901788 6.345651 
L 635.490811 15.338892 
L 649 23.153385 
L 649 23.153385 
" style="fill:none;stroke:#d3436e;stroke-linecap:square;stroke-width:3;"/>
   </g>
   <g id="line2d_6">
    <path clip-path="url(#p4c21365876)" d="M -1 241.717474 
L 5.10793 240.564505 
L 21.696954 242.894639 
L 38.285977 239.14514 
L 54.875 238.715448 
L 71.464023 237.979134 
L 88.053046 233.507612 
L 104.64207 233.111589 
L 121.231093 230.484651 
L 137.820116 224.801489 
L 154.409139 222.947317 
L 170.998162 219.847271 
L 187.587185 213.78546 
L 204.176209 205.693732 
L 220.765232 194.542105 
L 237.354255 177.978145 
L 253.943278 154.604742 
L 270.532301 145.681594 
L 287.121324 140.437814 
L 303.710348 125.069159 
L 320.299371 130.931091 
L 336.888394 115.50298 
L 353.477417 96.204555 
L 370.06644 100.519478 
L 386.655464 87.704732 
L 403.244487 78.124651 
L 419.83351 69.481579 
L 436.422533 52.27929 
L 453.011556 42.153005 
L 469.600579 49.900706 
L 486.189603 53.83581 
L 502.778626 31.975863 
L 519.367649 15.375942 
L 535.956672 14.059603 
L 552.545695 15.27318 
L 569.134718 11.023181 
L 585.723742 5.61144 
L 602.312765 -0.763291 
L 618.901788 0.093778 
L 635.490811 7.931552 
L 649 13.444806 
L 649 13.444806 
" style="fill:none;stroke:#982d80;stroke-linecap:square;stroke-width:3;"/>
   </g>
   <g id="line2d_7">
    <path clip-path="url(#p4c21365876)" d="M -1 248.551351 
L 5.10793 247.768237 
L 21.696954 247.520752 
L 38.285977 245.526297 
L 54.875 245.11167 
L 71.464023 239.870232 
L 88.053046 237.624573 
L 104.64207 237.526109 
L 121.231093 233.938083 
L 137.820116 228.348717 
L 154.409139 226.278221 
L 170.998162 221.351461 
L 187.587185 215.052472 
L 204.176209 206.183194 
L 220.765232 192.914856 
L 237.354255 175.367166 
L 253.943278 148.813623 
L 270.532301 139.909159 
L 287.121324 135.332603 
L 303.710348 119.210366 
L 320.299371 125.499476 
L 336.888394 109.465125 
L 353.477417 91.227428 
L 370.06644 95.573657 
L 386.655464 83.307182 
L 403.244487 74.493565 
L 419.83351 66.502932 
L 436.422533 50.07996 
L 453.011556 41.008714 
L 469.600579 49.070103 
L 486.189603 53.675061 
L 502.778626 33.247575 
L 519.367649 15.259017 
L 535.956672 14.361917 
L 552.545695 13.046769 
L 569.134718 9.851862 
L 585.723742 4.339004 
L 602.312765 -0.202048 
L 618.901788 3.610456 
L 635.490811 10.210733 
L 649 11.090158 
L 649 11.090158 
" style="fill:none;stroke:#5f187f;stroke-linecap:square;stroke-width:3;"/>
   </g>
   <g id="line2d_8">
    <path clip-path="url(#p4c21365876)" d="M -1 254.285309 
L 5.10793 254.546431 
L 21.696954 254.34709 
L 38.285977 249.702202 
L 54.875 252.118059 
L 71.464023 247.806089 
L 88.053046 244.033601 
L 104.64207 242.684379 
L 121.231093 238.93172 
L 137.820116 233.241992 
L 154.409139 231.256434 
L 170.998162 226.046973 
L 187.587185 219.823876 
L 204.176209 210.01323 
L 220.765232 195.105946 
L 237.354255 174.670743 
L 253.943278 145.967919 
L 270.532301 137.550719 
L 287.121324 132.03861 
L 303.710348 115.110081 
L 320.299371 122.518548 
L 336.888394 105.494081 
L 353.477417 87.144423 
L 370.06644 92.286296 
L 386.655464 79.868298 
L 403.244487 71.879283 
L 419.83351 64.620472 
L 436.422533 48.17974 
L 453.011556 39.787568 
L 469.600579 48.352948 
L 486.189603 53.871042 
L 502.778626 33.084029 
L 519.367649 14.681699 
L 535.956672 11.061659 
L 552.545695 6.701497 
L 569.134718 4.74065 
L 585.723742 2.271297 
L 598.778019 -1 
M 623.735904 -1 
L 635.490811 6.791961 
L 649 13.233236 
L 649 13.233236 
" style="fill:none;stroke:#221150;stroke-linecap:square;stroke-width:3;"/>
   </g>
   <g id="line2d_9"/>
   <g id="line2d_10"/>
   <g id="line2d_11"/>
   <g id="line2d_12"/>
   <g id="line2d_13"/>
   <g id="line2d_14"/>
   <g id="line2d_15">
    <path clip-path="url(#p4c21365876)" d="M -1 293.210487 
L 5.10793 293.331078 
L 21.696954 296.179565 
L 38.285977 296.153275 
L 71.464023 296.316127 
L 88.053046 296.327767 
L 104.64207 299.089465 
L 121.231093 297.435493 
L 137.820116 297.464248 
L 154.409139 298.084954 
L 170.998162 298.363282 
L 187.587185 297.77022 
L 204.176209 295.823982 
L 220.765232 295.665268 
L 237.354255 291.490236 
L 253.943278 287.90494 
L 270.532301 283.382583 
L 287.121324 279.362687 
L 303.710348 268.778111 
L 320.299371 271.404813 
L 336.888394 265.146691 
L 353.477417 245.202582 
L 370.06644 250.034759 
L 386.655464 239.173056 
L 403.244487 224.178206 
L 419.83351 220.59391 
L 436.422533 205.404359 
L 453.011556 194.616974 
L 469.600579 192.436298 
L 486.189603 200.409914 
L 502.778626 182.892285 
L 519.367649 172.764427 
L 535.956672 161.462732 
L 552.545695 151.084255 
L 569.134718 146.257343 
L 585.723742 143.829725 
L 602.312765 132.532088 
L 618.901788 124.349745 
L 635.490811 145.252239 
L 649 152.13401 
L 649 152.13401 
" style="fill:none;stroke:#9fbcbf;stroke-dasharray:11.1,4.8;stroke-dashoffset:0;stroke-width:3;"/>
   </g>
   <g id="line2d_16">
    <path clip-path="url(#p4c21365876)" d="M -1 282.858987 
L 5.10793 282.449492 
L 21.696954 284.557866 
L 38.285977 285.478912 
L 54.875 285.761349 
L 71.464023 283.584986 
L 88.053046 284.969626 
L 121.231093 284.825054 
L 137.820116 281.858026 
L 154.409139 282.852783 
L 187.587185 281.832021 
L 204.176209 278.709146 
L 220.765232 275.445894 
L 237.354255 270.357318 
L 253.943278 263.711705 
L 270.532301 259.16913 
L 287.121324 254.804423 
L 303.710348 242.677814 
L 320.299371 245.102663 
L 336.888394 237.582082 
L 353.477417 214.829441 
L 370.06644 218.880773 
L 386.655464 206.5362 
L 403.244487 189.265655 
L 419.83351 183.457422 
L 436.422533 165.863005 
L 453.011556 154.31772 
L 469.600579 154.131301 
L 486.189603 160.960444 
L 502.778626 142.002933 
L 519.367649 129.867533 
L 535.956672 121.229815 
L 552.545695 109.172067 
L 569.134718 101.214784 
L 585.723742 103.907068 
L 602.312765 96.331869 
L 618.901788 85.666284 
L 635.490811 105.936358 
L 649 110.806896 
L 649 110.806896 
" style="fill:none;stroke:#8091a0;stroke-dasharray:11.1,4.8;stroke-dashoffset:0;stroke-width:3;"/>
   </g>
   <g id="line2d_17">
    <path clip-path="url(#p4c21365876)" d="M -1 274.659623 
L 5.10793 274.455478 
L 21.696954 277.928984 
L 38.285977 273.701923 
L 54.875 275.009804 
L 71.464023 273.639837 
L 88.053046 272.793933 
L 104.64207 272.590351 
L 121.231093 272.756094 
L 137.820116 268.540083 
L 154.409139 269.042958 
L 170.998162 267.635796 
L 187.587185 265.154731 
L 204.176209 260.382893 
L 220.765232 256.135092 
L 237.354255 248.110608 
L 253.943278 239.311135 
L 270.532301 233.288604 
L 287.121324 228.656559 
L 303.710348 212.947329 
L 320.299371 216.318873 
L 336.888394 206.293348 
L 353.477417 182.400899 
L 370.06644 184.179496 
L 386.655464 169.642517 
L 403.244487 152.664031 
L 419.83351 144.717784 
L 436.422533 126.42308 
L 453.011556 115.272347 
L 469.600579 117.467253 
L 486.189603 125.177363 
L 502.778626 105.086623 
L 519.367649 88.614898 
L 535.956672 80.341885 
L 552.545695 77.278728 
L 569.134718 69.482673 
L 585.723742 69.39226 
L 602.312765 62.096003 
L 618.901788 55.969889 
L 635.490811 79.155975 
L 649 71.807059 
L 649 71.807059 
" style="fill:none;stroke:#5f657f;stroke-dasharray:11.1,4.8;stroke-dashoffset:0;stroke-width:3;"/>
   </g>
   <g id="line2d_18">
    <path clip-path="url(#p4c21365876)" d="M -1 274.78124 
L 5.10793 273.999546 
L 21.696954 275.079976 
L 38.285977 273.091959 
L 54.875 272.506019 
L 71.464023 269.165364 
L 88.053046 270.954439 
L 104.64207 268.187827 
L 121.231093 266.799828 
L 137.820116 262.704576 
L 154.409139 262.308583 
L 170.998162 260.141948 
L 187.587185 255.918619 
L 204.176209 250.634452 
L 220.765232 243.1989 
L 237.354255 230.190456 
L 253.943278 215.461348 
L 270.532301 207.748894 
L 287.121324 202.366796 
L 303.710348 184.407009 
L 320.299371 188.81224 
L 336.888394 175.600069 
L 353.477417 150.80857 
L 370.06644 152.4873 
L 386.655464 138.589659 
L 403.244487 123.080884 
L 419.83351 114.664433 
L 436.422533 96.07337 
L 453.011556 85.169239 
L 469.600579 90.383505 
L 486.189603 98.00204 
L 502.778626 78.183284 
L 519.367649 60.150945 
L 535.956672 52.85653 
L 552.545695 50.172173 
L 569.134718 42.968259 
L 585.723742 39.012867 
L 602.312765 37.962524 
L 618.901788 23.929042 
L 635.490811 52.375592 
L 649 51.557304 
L 649 51.557304 
" style="fill:none;stroke:#404059;stroke-dasharray:11.1,4.8;stroke-dashoffset:0;stroke-width:3;"/>
   </g>
   <g id="line2d_19">
    <path clip-path="url(#p4c21365876)" d="M -1 276.773323 
L 5.10793 275.336947 
L 21.696954 277.957192 
L 38.285977 274.264966 
L 54.875 277.155905 
L 71.464023 272.255283 
L 104.64207 267.719984 
L 121.231093 268.051245 
L 137.820116 262.760001 
L 154.409139 261.561125 
L 170.998162 257.628189 
L 187.587185 252.846619 
L 204.176209 244.532499 
L 220.765232 232.678748 
L 237.354255 213.2749 
L 253.943278 186.519996 
L 270.532301 175.659691 
L 287.121324 169.297721 
L 303.710348 148.820217 
L 320.299371 156.614177 
L 336.888394 138.208447 
L 353.477417 114.371148 
L 370.06644 118.094881 
L 386.655464 103.639693 
L 403.244487 91.706983 
L 419.83351 82.295313 
L 436.422533 64.491001 
L 453.011556 55.269655 
L 469.600579 63.804197 
L 486.189603 72.940672 
L 502.778626 52.486804 
L 519.367649 33.280097 
L 535.956672 24.96809 
L 552.545695 21.507131 
L 569.134718 17.092746 
L 585.723742 11.496453 
L 602.312765 10.742204 
L 618.901788 8.299361 
L 635.490811 19.327459 
L 649 25.977225 
L 649 25.977225 
" style="fill:none;stroke:#201f2c;stroke-dasharray:11.1,4.8;stroke-dashoffset:0;stroke-width:3;"/>
   </g>
   <g id="line2d_20"/>
   <g id="line2d_21"/>
   <g id="line2d_22"/>
   <g id="line2d_23"/>
   <g id="line2d_24"/>
   <g id="line2d_25"/>
   <g id="patch_3">
    <path d="M 54.875 313 
L 552.545695 313 
" style="fill:none;stroke:#000000;stroke-linecap:square;stroke-linejoin:miter;stroke-width:0.8;"/>
   </g>
   <g id="legend_1">
    <g id="line2d_26">
     <path d="M 572.369472 52.016937 
L 596.369472 52.016937 
" style="fill:none;"/>
    </g>
    <g id="line2d_27"/>
    <g id="text_10">
     <!-- $\bf{Maia}$ -->
     <defs>
      <path d="M 9.1875 72.90625 
L 33.109375 72.90625 
L 49.703125 33.890625 
L 66.40625 72.90625 
L 90.28125 72.90625 
L 90.28125 0 
L 72.515625 0 
L 72.515625 53.328125 
L 55.71875 14.015625 
L 43.796875 14.015625 
L 27 53.328125 
L 27 0 
L 9.1875 0 
z
" id="DejaVuSans-Bold-77"/>
      <path d="M 32.90625 24.609375 
Q 27.4375 24.609375 24.671875 22.75 
Q 21.921875 20.90625 21.921875 17.28125 
Q 21.921875 13.96875 24.140625 12.078125 
Q 26.375 10.203125 30.328125 10.203125 
Q 35.25 10.203125 38.625 13.734375 
Q 42 17.28125 42 22.609375 
L 42 24.609375 
z
M 59.625 31.203125 
L 59.625 0 
L 42 0 
L 42 8.109375 
Q 38.484375 3.125 34.078125 0.84375 
Q 29.6875 -1.421875 23.390625 -1.421875 
Q 14.890625 -1.421875 9.59375 3.53125 
Q 4.296875 8.5 4.296875 16.40625 
Q 4.296875 26.03125 10.90625 30.515625 
Q 17.53125 35.015625 31.6875 35.015625 
L 42 35.015625 
L 42 36.375 
Q 42 40.53125 38.71875 42.453125 
Q 35.453125 44.390625 28.515625 44.390625 
Q 22.90625 44.390625 18.0625 43.265625 
Q 13.234375 42.140625 9.078125 39.890625 
L 9.078125 53.21875 
Q 14.703125 54.59375 20.359375 55.296875 
Q 26.03125 56 31.6875 56 
Q 46.484375 56 53.046875 50.171875 
Q 59.625 44.34375 59.625 31.203125 
z
" id="DejaVuSans-Bold-97"/>
      <path d="M 8.40625 54.6875 
L 25.875 54.6875 
L 25.875 0 
L 8.40625 0 
z
M 8.40625 75.984375 
L 25.875 75.984375 
L 25.875 61.71875 
L 8.40625 61.71875 
z
" id="DejaVuSans-Bold-105"/>
     </defs>
     <g transform="translate(605.969472 56.216937)scale(0.12 -0.12)">
      <use transform="translate(0 0.015625)" xlink:href="#DejaVuSans-Bold-77"/>
      <use transform="translate(99.511719 0.015625)" xlink:href="#DejaVuSans-Bold-97"/>
      <use transform="translate(166.992188 0.015625)" xlink:href="#DejaVuSans-Bold-105"/>
      <use transform="translate(201.269531 0.015625)" xlink:href="#DejaVuSans-Bold-97"/>
     </g>
    </g>
    <g id="line2d_28">
     <path d="M 572.369472 69.630687 
L 596.369472 69.630687 
" style="fill:none;stroke:#f8765c;stroke-linecap:square;stroke-width:1.5;"/>
    </g>
    <g id="line2d_29"/>
    <g id="text_11">
     <!-- 1100 -->
     <defs>
      <path d="M 12.40625 8.296875 
L 28.515625 8.296875 
L 28.515625 63.921875 
L 10.984375 60.40625 
L 10.984375 69.390625 
L 28.421875 72.90625 
L 38.28125 72.90625 
L 38.28125 8.296875 
L 54.390625 8.296875 
L 54.390625 0 
L 12.40625 0 
z
" id="DejaVuSans-49"/>
      <path d="M 31.78125 66.40625 
Q 24.171875 66.40625 20.328125 58.90625 
Q 16.5 51.421875 16.5 36.375 
Q 16.5 21.390625 20.328125 13.890625 
Q 24.171875 6.390625 31.78125 6.390625 
Q 39.453125 6.390625 43.28125 13.890625 
Q 47.125 21.390625 47.125 36.375 
Q 47.125 51.421875 43.28125 58.90625 
Q 39.453125 66.40625 31.78125 66.40625 
z
M 31.78125 74.21875 
Q 44.046875 74.21875 50.515625 64.515625 
Q 56.984375 54.828125 56.984375 36.375 
Q 56.984375 17.96875 50.515625 8.265625 
Q 44.046875 -1.421875 31.78125 -1.421875 
Q 19.53125 -1.421875 13.0625 8.265625 
Q 6.59375 17.96875 6.59375 36.375 
Q 6.59375 54.828125 13.0625 64.515625 
Q 19.53125 74.21875 31.78125 74.21875 
z
" id="DejaVuSans-48"/>
     </defs>
     <g transform="translate(605.969472 73.830687)scale(0.12 -0.12)">
      <use xlink:href="#DejaVuSans-49"/>
      <use x="63.623047" xlink:href="#DejaVuSans-49"/>
      <use x="127.246094" xlink:href="#DejaVuSans-48"/>
      <use x="190.869141" xlink:href="#DejaVuSans-48"/>
     </g>
    </g>
    <g id="line2d_30">
     <path d="M 572.369472 87.244437 
L 596.369472 87.244437 
" style="fill:none;stroke:#d3436e;stroke-linecap:square;stroke-width:1.5;"/>
    </g>
    <g id="line2d_31"/>
    <g id="text_12">
     <!-- 1300 -->
     <defs>
      <path d="M 40.578125 39.3125 
Q 47.65625 37.796875 51.625 33 
Q 55.609375 28.21875 55.609375 21.1875 
Q 55.609375 10.40625 48.1875 4.484375 
Q 40.765625 -1.421875 27.09375 -1.421875 
Q 22.515625 -1.421875 17.65625 -0.515625 
Q 12.796875 0.390625 7.625 2.203125 
L 7.625 11.71875 
Q 11.71875 9.328125 16.59375 8.109375 
Q 21.484375 6.890625 26.8125 6.890625 
Q 36.078125 6.890625 40.9375 10.546875 
Q 45.796875 14.203125 45.796875 21.1875 
Q 45.796875 27.640625 41.28125 31.265625 
Q 36.765625 34.90625 28.71875 34.90625 
L 20.21875 34.90625 
L 20.21875 43.015625 
L 29.109375 43.015625 
Q 36.375 43.015625 40.234375 45.921875 
Q 44.09375 48.828125 44.09375 54.296875 
Q 44.09375 59.90625 40.109375 62.90625 
Q 36.140625 65.921875 28.71875 65.921875 
Q 24.65625 65.921875 20.015625 65.03125 
Q 15.375 64.15625 9.8125 62.3125 
L 9.8125 71.09375 
Q 15.4375 72.65625 20.34375 73.4375 
Q 25.25 74.21875 29.59375 74.21875 
Q 40.828125 74.21875 47.359375 69.109375 
Q 53.90625 64.015625 53.90625 55.328125 
Q 53.90625 49.265625 50.4375 45.09375 
Q 46.96875 40.921875 40.578125 39.3125 
z
" id="DejaVuSans-51"/>
     </defs>
     <g transform="translate(605.969472 91.444437)scale(0.12 -0.12)">
      <use xlink:href="#DejaVuSans-49"/>
      <use x="63.623047" xlink:href="#DejaVuSans-51"/>
      <use x="127.246094" xlink:href="#DejaVuSans-48"/>
      <use x="190.869141" xlink:href="#DejaVuSans-48"/>
     </g>
    </g>
    <g id="line2d_32">
     <path d="M 572.369472 104.858187 
L 596.369472 104.858187 
" style="fill:none;stroke:#982d80;stroke-linecap:square;stroke-width:1.5;"/>
    </g>
    <g id="line2d_33"/>
    <g id="text_13">
     <!-- 1500 -->
     <defs>
      <path d="M 10.796875 72.90625 
L 49.515625 72.90625 
L 49.515625 64.59375 
L 19.828125 64.59375 
L 19.828125 46.734375 
Q 21.96875 47.46875 24.109375 47.828125 
Q 26.265625 48.1875 28.421875 48.1875 
Q 40.625 48.1875 47.75 41.5 
Q 54.890625 34.8125 54.890625 23.390625 
Q 54.890625 11.625 47.5625 5.09375 
Q 40.234375 -1.421875 26.90625 -1.421875 
Q 22.3125 -1.421875 17.546875 -0.640625 
Q 12.796875 0.140625 7.71875 1.703125 
L 7.71875 11.625 
Q 12.109375 9.234375 16.796875 8.0625 
Q 21.484375 6.890625 26.703125 6.890625 
Q 35.15625 6.890625 40.078125 11.328125 
Q 45.015625 15.765625 45.015625 23.390625 
Q 45.015625 31 40.078125 35.4375 
Q 35.15625 39.890625 26.703125 39.890625 
Q 22.75 39.890625 18.8125 39.015625 
Q 14.890625 38.140625 10.796875 36.28125 
z
" id="DejaVuSans-53"/>
     </defs>
     <g transform="translate(605.969472 109.058187)scale(0.12 -0.12)">
      <use xlink:href="#DejaVuSans-49"/>
      <use x="63.623047" xlink:href="#DejaVuSans-53"/>
      <use x="127.246094" xlink:href="#DejaVuSans-48"/>
      <use x="190.869141" xlink:href="#DejaVuSans-48"/>
     </g>
    </g>
    <g id="line2d_34">
     <path d="M 572.369472 122.471937 
L 596.369472 122.471937 
" style="fill:none;stroke:#5f187f;stroke-linecap:square;stroke-width:1.5;"/>
    </g>
    <g id="line2d_35"/>
    <g id="text_14">
     <!-- 1700 -->
     <defs>
      <path d="M 8.203125 72.90625 
L 55.078125 72.90625 
L 55.078125 68.703125 
L 28.609375 0 
L 18.3125 0 
L 43.21875 64.59375 
L 8.203125 64.59375 
z
" id="DejaVuSans-55"/>
     </defs>
     <g transform="translate(605.969472 126.671937)scale(0.12 -0.12)">
      <use xlink:href="#DejaVuSans-49"/>
      <use x="63.623047" xlink:href="#DejaVuSans-55"/>
      <use x="127.246094" xlink:href="#DejaVuSans-48"/>
      <use x="190.869141" xlink:href="#DejaVuSans-48"/>
     </g>
    </g>
    <g id="line2d_36">
     <path d="M 572.369472 140.085687 
L 596.369472 140.085687 
" style="fill:none;stroke:#221150;stroke-linecap:square;stroke-width:1.5;"/>
    </g>
    <g id="line2d_37"/>
    <g id="text_15">
     <!-- 1900 -->
     <defs>
      <path d="M 10.984375 1.515625 
L 10.984375 10.5 
Q 14.703125 8.734375 18.5 7.8125 
Q 22.3125 6.890625 25.984375 6.890625 
Q 35.75 6.890625 40.890625 13.453125 
Q 46.046875 20.015625 46.78125 33.40625 
Q 43.953125 29.203125 39.59375 26.953125 
Q 35.25 24.703125 29.984375 24.703125 
Q 19.046875 24.703125 12.671875 31.3125 
Q 6.296875 37.9375 6.296875 49.421875 
Q 6.296875 60.640625 12.9375 67.421875 
Q 19.578125 74.21875 30.609375 74.21875 
Q 43.265625 74.21875 49.921875 64.515625 
Q 56.59375 54.828125 56.59375 36.375 
Q 56.59375 19.140625 48.40625 8.859375 
Q 40.234375 -1.421875 26.421875 -1.421875 
Q 22.703125 -1.421875 18.890625 -0.6875 
Q 15.09375 0.046875 10.984375 1.515625 
z
M 30.609375 32.421875 
Q 37.25 32.421875 41.125 36.953125 
Q 45.015625 41.5 45.015625 49.421875 
Q 45.015625 57.28125 41.125 61.84375 
Q 37.25 66.40625 30.609375 66.40625 
Q 23.96875 66.40625 20.09375 61.84375 
Q 16.21875 57.28125 16.21875 49.421875 
Q 16.21875 41.5 20.09375 36.953125 
Q 23.96875 32.421875 30.609375 32.421875 
z
" id="DejaVuSans-57"/>
     </defs>
     <g transform="translate(605.969472 144.285687)scale(0.12 -0.12)">
      <use xlink:href="#DejaVuSans-49"/>
      <use x="63.623047" xlink:href="#DejaVuSans-57"/>
      <use x="127.246094" xlink:href="#DejaVuSans-48"/>
      <use x="190.869141" xlink:href="#DejaVuSans-48"/>
     </g>
    </g>
    <g id="line2d_38">
     <path d="M 572.369472 165.665937 
L 596.369472 165.665937 
" style="fill:none;stroke-dasharray:0,0;stroke-dashoffset:0;"/>
    </g>
    <g id="line2d_39"/>
    <g id="text_16">
     <!--  -->
     <g transform="translate(605.969472 161.899437)scale(0.12 -0.12)"/>
     <!-- $\bf{Leela}$ -->
     <defs>
      <path d="M 9.1875 72.90625 
L 27.984375 72.90625 
L 27.984375 14.203125 
L 60.984375 14.203125 
L 60.984375 0 
L 9.1875 0 
z
" id="DejaVuSans-Bold-76"/>
      <path d="M 62.984375 27.484375 
L 62.984375 22.515625 
L 22.125 22.515625 
Q 22.75 16.359375 26.5625 13.28125 
Q 30.375 10.203125 37.203125 10.203125 
Q 42.71875 10.203125 48.5 11.84375 
Q 54.296875 13.484375 60.40625 16.796875 
L 60.40625 3.328125 
Q 54.203125 0.984375 48 -0.21875 
Q 41.796875 -1.421875 35.59375 -1.421875 
Q 20.75 -1.421875 12.515625 6.125 
Q 4.296875 13.671875 4.296875 27.296875 
Q 4.296875 40.671875 12.375 48.328125 
Q 20.453125 56 34.625 56 
Q 47.515625 56 55.25 48.234375 
Q 62.984375 40.484375 62.984375 27.484375 
z
M 45.015625 33.296875 
Q 45.015625 38.28125 42.109375 41.328125 
Q 39.203125 44.390625 34.515625 44.390625 
Q 29.4375 44.390625 26.265625 41.53125 
Q 23.09375 38.671875 22.3125 33.296875 
z
" id="DejaVuSans-Bold-101"/>
      <path d="M 8.40625 75.984375 
L 25.875 75.984375 
L 25.875 0 
L 8.40625 0 
z
" id="DejaVuSans-Bold-108"/>
     </defs>
     <g transform="translate(605.969472 175.336812)scale(0.12 -0.12)">
      <use transform="translate(0 0.015625)" xlink:href="#DejaVuSans-Bold-76"/>
      <use transform="translate(63.720703 0.015625)" xlink:href="#DejaVuSans-Bold-101"/>
      <use transform="translate(131.542969 0.015625)" xlink:href="#DejaVuSans-Bold-101"/>
      <use transform="translate(199.365234 0.015625)" xlink:href="#DejaVuSans-Bold-108"/>
      <use transform="translate(233.642578 0.015625)" xlink:href="#DejaVuSans-Bold-97"/>
     </g>
    </g>
    <g id="line2d_40">
     <path d="M 572.369472 188.750562 
L 596.369472 188.750562 
" style="fill:none;stroke:#9fbcbf;stroke-dasharray:5.55,2.4;stroke-dashoffset:0;stroke-width:1.5;"/>
    </g>
    <g id="line2d_41"/>
    <g id="text_17">
     <!-- 1000 -->
     <g transform="translate(605.969472 192.950562)scale(0.12 -0.12)">
      <use xlink:href="#DejaVuSans-49"/>
      <use x="63.623047" xlink:href="#DejaVuSans-48"/>
      <use x="127.246094" xlink:href="#DejaVuSans-48"/>
      <use x="190.869141" xlink:href="#DejaVuSans-48"/>
     </g>
    </g>
    <g id="line2d_42">
     <path d="M 572.369472 206.364312 
L 596.369472 206.364312 
" style="fill:none;stroke:#8091a0;stroke-dasharray:5.55,2.4;stroke-dashoffset:0;stroke-width:1.5;"/>
    </g>
    <g id="line2d_43"/>
    <g id="text_18">
     <!-- 1600 -->
     <defs>
      <path d="M 33.015625 40.375 
Q 26.375 40.375 22.484375 35.828125 
Q 18.609375 31.296875 18.609375 23.390625 
Q 18.609375 15.53125 22.484375 10.953125 
Q 26.375 6.390625 33.015625 6.390625 
Q 39.65625 6.390625 43.53125 10.953125 
Q 47.40625 15.53125 47.40625 23.390625 
Q 47.40625 31.296875 43.53125 35.828125 
Q 39.65625 40.375 33.015625 40.375 
z
M 52.59375 71.296875 
L 52.59375 62.3125 
Q 48.875 64.0625 45.09375 64.984375 
Q 41.3125 65.921875 37.59375 65.921875 
Q 27.828125 65.921875 22.671875 59.328125 
Q 17.53125 52.734375 16.796875 39.40625 
Q 19.671875 43.65625 24.015625 45.921875 
Q 28.375 48.1875 33.59375 48.1875 
Q 44.578125 48.1875 50.953125 41.515625 
Q 57.328125 34.859375 57.328125 23.390625 
Q 57.328125 12.15625 50.6875 5.359375 
Q 44.046875 -1.421875 33.015625 -1.421875 
Q 20.359375 -1.421875 13.671875 8.265625 
Q 6.984375 17.96875 6.984375 36.375 
Q 6.984375 53.65625 15.1875 63.9375 
Q 23.390625 74.21875 37.203125 74.21875 
Q 40.921875 74.21875 44.703125 73.484375 
Q 48.484375 72.75 52.59375 71.296875 
z
" id="DejaVuSans-54"/>
     </defs>
     <g transform="translate(605.969472 210.564312)scale(0.12 -0.12)">
      <use xlink:href="#DejaVuSans-49"/>
      <use x="63.623047" xlink:href="#DejaVuSans-54"/>
      <use x="127.246094" xlink:href="#DejaVuSans-48"/>
      <use x="190.869141" xlink:href="#DejaVuSans-48"/>
     </g>
    </g>
    <g id="line2d_44">
     <path d="M 572.369472 223.978062 
L 596.369472 223.978062 
" style="fill:none;stroke:#5f657f;stroke-dasharray:5.55,2.4;stroke-dashoffset:0;stroke-width:1.5;"/>
    </g>
    <g id="line2d_45"/>
    <g id="text_19">
     <!-- 2200 -->
     <defs>
      <path d="M 19.1875 8.296875 
L 53.609375 8.296875 
L 53.609375 0 
L 7.328125 0 
L 7.328125 8.296875 
Q 12.9375 14.109375 22.625 23.890625 
Q 32.328125 33.6875 34.8125 36.53125 
Q 39.546875 41.84375 41.421875 45.53125 
Q 43.3125 49.21875 43.3125 52.78125 
Q 43.3125 58.59375 39.234375 62.25 
Q 35.15625 65.921875 28.609375 65.921875 
Q 23.96875 65.921875 18.8125 64.3125 
Q 13.671875 62.703125 7.8125 59.421875 
L 7.8125 69.390625 
Q 13.765625 71.78125 18.9375 73 
Q 24.125 74.21875 28.421875 74.21875 
Q 39.75 74.21875 46.484375 68.546875 
Q 53.21875 62.890625 53.21875 53.421875 
Q 53.21875 48.921875 51.53125 44.890625 
Q 49.859375 40.875 45.40625 35.40625 
Q 44.1875 33.984375 37.640625 27.21875 
Q 31.109375 20.453125 19.1875 8.296875 
z
" id="DejaVuSans-50"/>
     </defs>
     <g transform="translate(605.969472 228.178062)scale(0.12 -0.12)">
      <use xlink:href="#DejaVuSans-50"/>
      <use x="63.623047" xlink:href="#DejaVuSans-50"/>
      <use x="127.246094" xlink:href="#DejaVuSans-48"/>
      <use x="190.869141" xlink:href="#DejaVuSans-48"/>
     </g>
    </g>
    <g id="line2d_46">
     <path d="M 572.369472 241.591813 
L 596.369472 241.591813 
" style="fill:none;stroke:#404059;stroke-dasharray:5.55,2.4;stroke-dashoffset:0;stroke-width:1.5;"/>
    </g>
    <g id="line2d_47"/>
    <g id="text_20">
     <!-- 2700 -->
     <g transform="translate(605.969472 245.791812)scale(0.12 -0.12)">
      <use xlink:href="#DejaVuSans-50"/>
      <use x="63.623047" xlink:href="#DejaVuSans-55"/>
      <use x="127.246094" xlink:href="#DejaVuSans-48"/>
      <use x="190.869141" xlink:href="#DejaVuSans-48"/>
     </g>
    </g>
    <g id="line2d_48">
     <path d="M 572.369472 259.205562 
L 596.369472 259.205562 
" style="fill:none;stroke:#201f2c;stroke-dasharray:5.55,2.4;stroke-dashoffset:0;stroke-width:1.5;"/>
    </g>
    <g id="line2d_49"/>
    <g id="text_21">
     <!-- 3200 -->
     <g transform="translate(605.969472 263.405562)scale(0.12 -0.12)">
      <use xlink:href="#DejaVuSans-51"/>
      <use x="63.623047" xlink:href="#DejaVuSans-50"/>
      <use x="127.246094" xlink:href="#DejaVuSans-48"/>
      <use x="190.869141" xlink:href="#DejaVuSans-48"/>
     </g>
    </g>
   </g>
  </g>
 </g>
 <defs>
  <clipPath id="p4c21365876">
   <rect height="313" width="497.670695" x="54.875" y="0"/>
  </clipPath>
 </defs>
</svg>
